<?xml version="1.0" encoding="UTF-8" standalone="no" ?>
<!DOCTYPE svg PUBLIC "-//W3C//DTD SVG 1.1//EN" "http://www.w3.org/Graphics/SVG/1.1/DTD/svg11.dtd">
<svg xmlns="http://www.w3.org/2000/svg" xmlns:xlink="http://www.w3.org/1999/xlink" version="1.1" width="400" height="400" viewBox="0 0 400 400" xml:space="preserve">
<desc>Created with Fabric.js 3.6.2</desc>
<defs>
</defs>
<g transform="matrix(1.56 0 0 1.56 203.91 198.44)" id="Layer_1"  >
<polygon style="stroke: none; stroke-width: 1; stroke-dasharray: none; stroke-linecap: butt; stroke-dashoffset: 0; stroke-linejoin: miter; stroke-miterlimit: 4; fill: rgb(0,0,0); fill-rule: nonzero; opacity: 1;"  points="-9.5,10 9.5,0 -9.5,-10 -9.5,10 " />
</g>
<g transform="matrix(1.56 0 0 1.56 200 200)" id="Layer_1"  >
<path style="stroke: none; stroke-width: 1; stroke-dasharray: none; stroke-linecap: butt; stroke-dashoffset: 0; stroke-linejoin: miter; stroke-miterlimit: 4; fill: rgb(0,0,0); fill-rule: nonzero; opacity: 1;"  transform=" translate(-64, -64)" d="M 64 0 a 64 64 0 1 0 64 64 A 64 64 0 0 0 64 0 Z M 98.62 74.08 c -0.49 6.75 -1.72 13.72 -10.35 14.23 a 426.5 426.5 0 0 1 -48.55 0 c -8.63 -0.5 -9.86 -7.48 -10.35 -14.23 a 134.94 134.94 0 0 1 0 -20.16 c 0.49 -6.75 1.72 -13.72 10.35 -14.23 a 426.5 426.5 0 0 1 48.55 0 c 8.63 0.5 9.86 7.48 10.35 14.23 A 135 135 0 0 1 98.62 74.08 Z" stroke-linecap="round" />
</g>
</svg>